inDegrees=no
num_controls=7
num_derivatives=13
num_iterations=119
num_multipliers=7
num_parameters=0
num_slacks=7
num_states=26
objective=0.448428
objective_accelerations=0.048935
objective_balance=0.007347
objective_effort=0.036213
objective_height=0.350994
objective_ligament=0.004939
solver_duration=1766.125940
status=Solve_Succeeded
success=true
DataType=double
version=3
OpenSimVersion=4.5
endheader
time	/jointset/ground_pelvis/pelvis_tilt/value	/jointset/ground_pelvis/pelvis_tx/value	/jointset/ground_pelvis/pelvis_ty/value	/jointset/hip_l/hip_flexion_l/value	/jointset/hip_l/hip_adduction_l/value	/jointset/hip_l/hip_rotation_l/value	/jointset/back/lumbar_extension/value	/jointset/patellofemoral_l/patellar_flexion_l/value	/jointset/knee_l/knee_flexion_l/value	/jointset/knee_l/knee_adduction_l/value	/jointset/knee_l/knee_rotation_l/value	/jointset/ankle_l/ankle_angle_l/value	/jointset/subtalar_l/subtalar_angle_l/value	/jointset/ground_pelvis/pelvis_tilt/speed	/jointset/ground_pelvis/pelvis_tx/speed	/jointset/ground_pelvis/pelvis_ty/speed	/jointset/hip_l/hip_flexion_l/speed	/jointset/hip_l/hip_adduction_l/speed	/jointset/hip_l/hip_rotation_l/speed	/jointset/back/lumbar_extension/speed	/jointset/patellofemoral_l/patellar_flexion_l/speed	/jointset/knee_l/knee_flexion_l/speed	/jointset/knee_l/knee_adduction_l/speed	/jointset/knee_l/knee_rotation_l/speed	/jointset/ankle_l/ankle_angle_l/speed	/jointset/subtalar_l/subtalar_angle_l/speed	/forceset/tau_hip_flexion_l	/forceset/tau_hip_adduction_l	/forceset/tau_hip_rotation_l	/forceset/tau_knee_flexion_l	/forceset/tau_ankle_angle_l	/forceset/tau_subtalar_angle_l	/forceset/tau_lumbar_extension	lambda_cid13_p0	lambda_cid13_p1	lambda_cid13_p2	lambda_cid13_p3	lambda_cid13_p4	lambda_cid13_p5	lambda_cid14_p0	/jointset/ground_pelvis/pelvis_tilt/accel	/jointset/ground_pelvis/pelvis_tx/accel	/jointset/ground_pelvis/pelvis_ty/accel	/jointset/hip_l/hip_flexion_l/accel	/jointset/hip_l/hip_adduction_l/accel	/jointset/hip_l/hip_rotation_l/accel	/jointset/back/lumbar_extension/accel	/jointset/patellofemoral_l/patellar_flexion_l/accel	/jointset/knee_l/knee_flexion_l/accel	/jointset/knee_l/knee_adduction_l/accel	/jointset/knee_l/knee_rotation_l/accel	/jointset/ankle_l/ankle_angle_l/accel	/jointset/subtalar_l/subtalar_angle_l/accel	gamma_cid13_p0	gamma_cid13_p1	gamma_cid13_p2	gamma_cid13_p3	gamma_cid13_p4	gamma_cid13_p5	gamma_cid14_p0
1.5	-0.4474332135974962	-0.07331094845937106	0.7630845254276375	1.265326664746797	-0.3099456213883497	-0.04581215213052281	-0.3449925813111341	0.6897509345370805	0.689750934537091	-0.1735605007484259	0.1744810926686659	0.03794834064644038	-0.0491037723301227	0.7279612219925294	0.260059616661603	0.4868892460084898	-2.329308087343694	0.03158084927639845	-0.6109990295979136	0.5637127923366013	-1.749063354838561	-1.749063354838688	0.0053209902421583	-0.0003322640023131594	-0.2418127180298823	0.004547014986383486	-0.2506402139012596	0.02140356057434115	-0.02106221596948448	-0.2002164344630007	0.1380279427334316	0.04087852710163437	0.2257028009832432	5.314758301693885	-21.42055111368933	6.138265246993278	-5.117511509399493	-610.7863501347512	-57.04352097252133	-28.25998317134627	0.6357242619305574	0.6720296962808421	-0.2921708844832441	-1.532795479082076	0.5966080716229428	-0.3191826547432317	1.743177527387778	-1.090740461435483	-1.090740461435454	0.06105948525504341	-0.01857900197275527	-0.1359554803279688	0.5770303515258695	2.599323384947796e-07	7.517776073640418e-07	-1.284133378055584e-06	-6.979716203816334e-08	3.397400846476594e-07	-2.743229473367224e-08	2.897227804963421e-07
1.51	-0.4401220945628457	-0.0706769137603997	0.7679378721823683	1.241959051187863	-0.3096011363604571	-0.05193761567154417	-0.3392695046974521	0.6722081248731928	0.6722081248731987	-0.173506495783865	0.1744782107668049	0.03552364802231756	-0.04903068207916836	0.7341710455663012	0.2667227470979234	0.4836831615385788	-2.343907367049492	0.03730158537566462	-0.6139650129946467	0.5808459732677239	-1.759249646183132	-1.759249646183193	0.005406636460309915	-0.0002624436401798631	-0.2430716809504783	0.01005768666795497	-0.2429109804697872	0.0207147751511958	-0.0209010404114636	-0.1986497934465709	0.1378920712149646	0.04028567519314264	0.2197271067671374	5.505234962414527	-21.30328950055912	6.241633554855036	-5.096573687175591	-606.4268038383233	-57.34104657833841	-29.26488499083112	0.5998977991312221	0.6597908880947649	-0.3493228757696942	-1.377384466249917	0.5575388485527845	-0.2658002110003334	1.689904806159517	-0.9452739657123181	-0.9452739657026693	-0.02851144567801636	0.01715704912903598	-0.112735253343863	0.535958939870382	1.426008968739222e-07	9.99524764489931e-07	-7.371975867437797e-07	5.076973813514585e-08	2.668573391272083e-07	4.972552397827436e-08	2.313575536962958e-07
1.52	-0.4327516200136503	-0.06797698052290772	0.772756258962895	1.218454666781888	-0.3091998974776772	-0.0580888378523065	-0.3333767929884218	0.6545709121969101	0.6545709121969122	-0.1734538000842744	0.1744755059673317	0.03308799205790496	-0.04890291043871876	0.7398323249013017	0.2732393243657302	0.4798972511676835	-2.356662256752141	0.04293162025390528	-0.61615075754586	0.5976398114062468	-1.767943957317482	-1.767943957317482	0.005059137247531444	-0.0002968435251399355	-0.2440053860878124	0.01548329288543017	-0.2351817470383181	0.02002598972804619	-0.0207398648534216	-0.1970831524301459	0.1377561996964956	0.03969282328464619	0.2137514125510299	5.688094788577295	-21.18709887423168	6.34791949047067	-5.063924984323932	-602.1902249864759	-57.69470701917391	-30.25204534639569	0.5260154141763188	0.6427190625781137	-0.4081360646801083	-1.163917478452389	0.5784678274178406	-0.1631348856392943	1.675308968867802	-0.7923444193915707	-0.7923444193920685	-0.02556960093097288	-0.03942305139142779	-0.07090392367561305	0.5600172587066118	7.697669067420057e-08	1.167998357658423e-06	-4.334746332560516e-07	1.206454184029292e-07	2.322929095838372e-07	1.015173585652352e-07	2.018318838331683e-07
1.53	-0.4253274301961213	-0.06521272844143254	0.7775339646334761	1.194832097530442	-0.3087424574339086	-0.06425909776321942	-0.3273182039854216	0.6368541843248698	0.6368541843248842	-0.1734054763849557	0.1744723941607013	0.03064461251112007	-0.04872093498638724	0.7448943061189797	0.2795740320384767	0.4755538066124617	-2.367518360684917	0.04858075538393244	-0.6178465634557861	0.6139882012872697	-1.775154056438361	-1.775154056438462	0.004650592942081784	-0.0003203375376060483	-0.2446165000465327	0.02093877642592373	-0.2270740312886921	0.01918130507150146	-0.02066366698021274	-0.1958661453004132	0.1380334199163815	0.03887609968809472	0.2074202126104928	5.993456636294186	-20.99736214303559	6.445029692489507	-5.033953677200523	-597.9713076872215	-57.96335247025245	-31.21717146469177	0.4796047945918565	0.6233166832081564	-0.4609117546611317	-0.9964529544317585	0.5616722770102063	-0.1643936822399278	1.601135811741187	-0.6482492697923933	-0.6482492698072643	-0.04153968197262524	0.01709874545618367	-0.04809653951397547	0.5421990290671506	6.629142210943493e-08	1.252243789122182e-06	-3.881653199564022e-07	1.366616775210921e-07	2.38441690766113e-07	1.26357835019399e-07	2.029482432155166e-07
1.54	-0.4178559575026088	-0.06238623527051286	0.7822655432377614	1.17111096801892	-0.308227818854597	-0.0704446337809473	-0.3210988247208068	0.6190727741393499	0.6190727741393739	-0.1733598466960141	0.1744692296782723	0.02819674554323905	-0.0484836276731815	0.7492889000977895	0.2856875422546336	0.4706718379085278	-2.376374308767359	0.05437132736256332	-0.6192059789085392	0.6297978637291578	-1.780880420013495	-1.780880420013694	0.004520335171804887	-0.0003073786848565214	-0.2449028703070024	0.02654966506027409	-0.2189663155390716	0.01833662041495107	-0.0205874691069947	-0.1946491381706853	0.1383106401362645	0.03805937609153701	0.2010890126699531	6.290613614840264	-20.80846465373397	6.544873315957334	-4.98708104787532	-593.8812055733486	-58.28872402747034	-32.1560268261787	0.3925379664026515	0.5984795712601897	-0.5158408944225196	-0.7638863083857719	0.6067551971385868	-0.0958567942047249	1.567563481040786	-0.4955973102425585	-0.495597310242571	0.03008770610357988	-0.03213247834829919	-0.005955184025496738	0.5910982774779737	5.554260327064116e-08	1.326307151552385e-06	-3.592457443129162e-07	1.497552395032121e-07	2.446804312604355e-07	1.51285759202774e-07	2.039735301952508e-07
1.55	-0.410343809668676	-0.05949975300552999	0.7869456354549602	1.147311251274978	-0.3076549624529169	-0.07664161537740029	-0.3147241618333481	0.6012416442236953	0.6012416442236965	-0.1733150270046239	0.174466296732002	0.02574763529961743	-0.04818983616236341	0.7530309988389206	0.2915670900661589	0.4652585759400944	-2.383229539582651	0.06018524111796039	-0.6200723015103826	0.645036903198576	-1.785084148969885	-1.785084148969937	0.004400508542508196	-0.0002986707539872302	-0.2448650553442877	0.03219577123060392	-0.2108751565371586	0.01725966495909634	-0.02052818291586495	-0.1933562829264083	0.1385650413320187	0.03716355890009034	0.1947368890137243	6.579191076955913	-20.58450739526321	6.640032916517675	-4.932448831027677	-589.7867207727002	-58.56053344885601	-33.06426767506219	0.3486075336472561	0.5764522616796526	-0.5672223774472521	-0.5954007187819872	0.5663620220695367	-0.06409685771836615	1.487402595292579	-0.3435896472554408	-0.3435896472333984	-0.03925331710682102	0.01459000121114352	0.01678213818094413	0.5492534583802241	4.472056346394543e-08	1.388638999661317e-06	-3.492099968384867e-07	1.594813460894571e-07	2.510228205273335e-07	1.763144383785013e-07	2.04893885928495e-07
1.56	-0.4027975285061959	-0.05655572328731567	0.7915689643465958	1.123453170372746	-0.307024436402217	-0.08284367557277891	-0.3082000428681151	0.5833763112266936	0.583376311226673	-0.1732726526734608	0.1744628943795211	0.02330052966597539	-0.04784000625552808	0.7561155658072072	0.2971970329009225	0.4593191727959242	-2.388047140425185	0.0659052571665268	-0.6202216986939948	0.6596890792840039	-1.787721036283003	-1.787721036282909	0.004031263126791152	-0.000401259926853662	-0.2445019483111337	0.03775734426372356	-0.202783997535242	0.01618270950324749	-0.0204688967247485	-0.1920634276821266	0.1388194425277758	0.03626774170865019	0.1883847653574966	6.859050676724534	-20.36095894523822	6.737468343667969	-4.856198977852406	-585.8266029156172	-58.88880930118533	-33.93761420387579	0.2610316118337858	0.5485585759078536	-0.6210691295698928	-0.3563603138340112	0.5879756557724544	0.04752828944151117	1.45019080424275	-0.1822289815882037	-0.1822289815882028	-0.01979605118048969	-0.05439189909544122	0.05910323006232689	0.5741916500359369	3.463864153052032e-08	1.444209505431459e-06	-3.359864448206844e-07	1.679059317595527e-07	2.579205276876114e-07	1.997401697315997e-07	2.050921172995157e-07
1.57	-0.3952237503917976	-0.0535567341207244	0.796130330425082	1.099557209525593	-0.3063371233457217	-0.08904425803755446	-0.301532586954097	0.5654925411262415	0.5654925411262263	-0.1732347446724331	0.1744583137985506	0.02085867629366984	-0.04743491448493313	0.7585210220138143	0.3025490488402887	0.4528715436702123	-2.390785101076408	0.07154833443183935	-0.6198203049629858	0.6736813162181609	-1.788757632181018	-1.788757632180866	0.003551594635456903	-0.0005034905876872602	-0.2438138955419191	0.04325480759395182	-0.1945522807919708	0.01494548211062462	-0.02047768359827719	-0.1909172808743636	0.1392832746988719	0.03520115745516511	0.1818778194111501	7.195508252033547	-20.07460316738938	6.826543143801231	-4.773222560662319	-581.9396513410201	-59.13182131777239	-34.7717448071286	0.2124562557519081	0.5207960898813546	-0.6689307120456304	-0.178511952911233	0.550959746132941	0.04783551628589228	1.355622042784578	-0.02311294637085337	-0.02311294636223004	-0.06161913756749479	0.01370114765538034	0.08189421916896142	0.5363911442933303	2.548186693868347e-08	1.491328333278115e-06	-3.187781371236661e-07	1.747036162844614e-07	2.655123822146142e-07	2.211622163064123e-07	2.043876932177573e-07
